<svg xmlns="http://www.w3.org/2000/svg" viewBox="0 0 474 314"><defs>
    <linearGradient id="gMark" x1="0" y1="0" x2="1" y2="1"><stop offset="0" stop-color="#2F6BFF"/><stop offset="1" stop-color="#17C9C0"/></linearGradient>
    <linearGradient id="gPulse" x1="0" y1="0" x2="1" y2="1"><stop offset="0" stop-color="#9FFBEE"/><stop offset="1" stop-color="#17C9C0"/></linearGradient>
    <linearGradient id="gWord" x1="0" y1="0" x2="1" y2="1"><stop offset="0" stop-color="#2F6BFF"/><stop offset="1" stop-color="#17C9C0"/></linearGradient>
  </defs><g transform="translate(137.11999999999998,10) scale(0.78125)"><rect x="56" y="56" width="144" height="144" rx="34" fill="none" stroke="url(#gMark)" stroke-width="11"/>
    <rect x="34" y="88.5" width="22" height="15" rx="5" fill="url(#gMark)"/>
    <rect x="200" y="88.5" width="22" height="15" rx="5" fill="url(#gMark)"/>
    <rect x="34" y="120.5" width="22" height="15" rx="5" fill="url(#gMark)"/>
    <rect x="200" y="120.5" width="22" height="15" rx="5" fill="url(#gMark)"/>
    <rect x="34" y="152.5" width="22" height="15" rx="5" fill="url(#gMark)"/>
    <rect x="200" y="152.5" width="22" height="15" rx="5" fill="url(#gMark)"/>
    <rect x="88.5" y="34" width="15" height="22" rx="5" fill="url(#gMark)"/>
    <rect x="88.5" y="200" width="15" height="22" rx="5" fill="url(#gMark)"/>
    <rect x="120.5" y="34" width="15" height="22" rx="5" fill="url(#gMark)"/>
    <rect x="120.5" y="200" width="15" height="22" rx="5" fill="url(#gMark)"/>
    <rect x="152.5" y="34" width="15" height="22" rx="5" fill="url(#gMark)"/>
    <rect x="152.5" y="200" width="15" height="22" rx="5" fill="url(#gMark)"/>
    <circle cx="95" cy="95" r="15" fill="url(#gMark)"/><circle cx="161" cy="161" r="15" fill="url(#gMark)"/>
    <path d="M95,95 C 150,108 106,148 161,161" fill="none" stroke="url(#gPulse)" stroke-width="14" stroke-linecap="round"/>
    <circle cx="128" cy="128" r="11" fill="#9FFBEE"/><circle cx="128" cy="128" r="5.5" fill="#E9FFFB"/></g>
    <path d="M299 -12Q209 -12 146.5 20.0Q84 52 39 104L128 190Q164 148 208.5 126.0Q253 104 307 104Q368 104 399.0 130.5Q430 157 430 202Q430 237 410.0 259.0Q390 281 335 291L269 301Q60 334 60 504Q60 551 77.5 589.0Q95 627 128.0 654.0Q161 681 207.5 695.5Q254 710 313 710Q392 710 451.0 684.0Q510 658 552 607L462 522Q436 554 399.0 574.0Q362 594 306 594Q249 594 220.5 572.5Q192 551 192 512Q192 472 215.0 453.0Q238 434 289 425L354 413Q460 394 510.5 345.5Q561 297 561 210Q561 160 543.5 119.5Q526 79 492.5 49.5Q459 20 410.5 4.0Q362 -12 299 -12Z" transform="translate(24.00,290.00) scale(0.08000,-0.08000)" fill="#1E2327"/>
    <path d="M394 522H514L304 -93Q294 -121 281.5 -141.5Q269 -162 252.0 -175.0Q235 -188 211.0 -194.0Q187 -200 155 -200H78V-98H172L196 -25L9 522H136L227 246L261 114H267L303 246Z" transform="translate(72.56,290.00) scale(0.08000,-0.08000)" fill="#1E2327"/>
    <path d="M74 0V522H202V435H207Q223 477 257.5 505.5Q292 534 353 534Q434 534 477.0 481.0Q520 428 520 330V0H392V317Q392 373 372.0 401.0Q352 429 306 429Q286 429 267.5 423.5Q249 418 234.5 407.5Q220 397 211.0 381.5Q202 366 202 345V0Z" transform="translate(114.16,290.00) scale(0.08000,-0.08000)" fill="#1E2327"/>
    <path d="M458 0Q416 0 391.5 24.5Q367 49 361 90H355Q342 39 302.0 13.5Q262 -12 203 -12Q123 -12 80.0 30.0Q37 72 37 142Q37 223 95.0 262.5Q153 302 260 302H349V340Q349 384 326.0 408.0Q303 432 252 432Q207 432 179.5 412.5Q152 393 133 366L57 434Q86 479 134.0 506.5Q182 534 261 534Q367 534 422.0 486.0Q477 438 477 348V102H529V0ZM246 81Q289 81 319.0 100.0Q349 119 349 156V225H267Q167 225 167 161V144Q167 112 187.5 96.5Q208 81 246 81Z" transform="translate(160.88,290.00) scale(0.08000,-0.08000)" fill="#1E2327"/>
    <path d="M74 522H202V436H206Q220 481 259.0 507.5Q298 534 350 534Q450 534 502.5 463.5Q555 393 555 262Q555 130 502.5 59.0Q450 -12 350 -12Q298 -12 259.5 15.0Q221 42 206 87H202V-200H74ZM309 94Q359 94 390.0 127.0Q421 160 421 216V306Q421 362 390.0 395.5Q359 429 309 429Q263 429 232.5 406.0Q202 383 202 345V179Q202 138 232.5 116.0Q263 94 309 94Z" transform="translate(205.28,290.00) scale(0.08000,-0.08000)" fill="#1E2327"/>
    <path d="M237 0Q171 0 136.5 34.5Q102 69 102 133V420H25V522H65Q94 522 104.5 535.5Q115 549 115 576V665H230V522H337V420H230V102H329V0Z" transform="translate(252.96,290.00) scale(0.08000,-0.08000)" fill="#1E2327"/>
    <path d="M138 598Q98 598 80.5 616.0Q63 634 63 662V682Q63 710 80.5 728.0Q98 746 138 746Q177 746 195.0 728.0Q213 710 213 682V662Q213 634 195.0 616.0Q177 598 138 598ZM74 522H202V0H74Z" transform="translate(282.56,290.00) scale(0.08000,-0.08000)" fill="#1E2327"/>
    <path d="M280 -12Q222 -12 177.0 7.0Q132 26 101.5 62.0Q71 98 55.0 148.5Q39 199 39 262Q39 325 55.0 375.0Q71 425 101.5 460.5Q132 496 177.0 515.0Q222 534 280 534Q359 534 410.5 499.0Q462 464 485 402L380 355Q371 388 346.5 409.5Q322 431 280 431Q226 431 199.5 397.0Q173 363 173 308V213Q173 158 199.5 124.5Q226 91 280 91Q326 91 351.0 114.5Q376 138 390 173L488 126Q462 57 409.0 22.5Q356 -12 280 -12Z" transform="translate(304.32,290.00) scale(0.08000,-0.08000)" fill="#1E2327"/>
    <path d="M356 -12Q287 -12 231.0 11.0Q175 34 135.5 80.0Q96 126 74.0 193.0Q52 260 52 349Q52 437 74.0 504.5Q96 572 135.5 618.0Q175 664 231.0 687.0Q287 710 356 710Q425 710 481.0 687.0Q537 664 577.0 618.0Q617 572 638.5 504.5Q660 437 660 349Q660 260 638.5 193.0Q617 126 577.0 80.0Q537 34 481.0 11.0Q425 -12 356 -12ZM356 105Q431 105 475.5 155.0Q520 205 520 295V403Q520 493 475.5 543.0Q431 593 356 593Q281 593 236.5 543.0Q192 493 192 403V295Q192 205 236.5 155.0Q281 105 356 105Z" transform="translate(345.04,290.00) scale(0.08000,-0.08000)" fill="url(#gWord)"/>
    <path d="M299 -12Q209 -12 146.5 20.0Q84 52 39 104L128 190Q164 148 208.5 126.0Q253 104 307 104Q368 104 399.0 130.5Q430 157 430 202Q430 237 410.0 259.0Q390 281 335 291L269 301Q60 334 60 504Q60 551 77.5 589.0Q95 627 128.0 654.0Q161 681 207.5 695.5Q254 710 313 710Q392 710 451.0 684.0Q510 658 552 607L462 522Q436 554 399.0 574.0Q362 594 306 594Q249 594 220.5 572.5Q192 551 192 512Q192 472 215.0 453.0Q238 434 289 425L354 413Q460 394 510.5 345.5Q561 297 561 210Q561 160 543.5 119.5Q526 79 492.5 49.5Q459 20 410.5 4.0Q362 -12 299 -12Z" transform="translate(401.68,290.00) scale(0.08000,-0.08000)" fill="url(#gWord)"/></svg>